HIERARCHY
ROOT Hips
{
	OFFSET 0.00000 0.00000 0.00000
	CHANNELS 6 Xposition Yposition Zposition Zrotation Yrotation Xrotation 
	JOINT LHipJoint
	{
		OFFSET 0 0 0
		CHANNELS 3 Zrotation Yrotation Xrotation
		JOINT LeftHip
		{
			OFFSET 1.83091 -1.65485 0.80491
			CHANNELS 3 Zrotation Yrotation Xrotation
			JOINT LeftKnee
			{
				OFFSET 2.11983 -5.82419 0.00000
				CHANNELS 3 Zrotation Yrotation Xrotation
				JOINT LeftAnkle
				{
					OFFSET 2.66794 -7.33011 0.00000
					CHANNELS 3 Zrotation Yrotation Xrotation
					JOINT LeftToe
					{
						OFFSET 0.15587 -0.42826 1.82520
						CHANNELS 3 Zrotation Yrotation Xrotation
						End Site
						{
							OFFSET 0.00000 -0.00000 0.94802
						}
					}
				}
			}
		}
	}
	JOINT RHipJoint
	{
		OFFSET 0 0 0
		CHANNELS 3 Zrotation Yrotation Xrotation
		JOINT RightHip
		{
			OFFSET -1.96593 -1.65485 0.80491
			CHANNELS 3 Zrotation Yrotation Xrotation
			JOINT RightKnee
			{
				OFFSET -2.00526 -5.50940 0.00000
				CHANNELS 3 Zrotation Yrotation Xrotation
				JOINT RightAnkle
				{
					OFFSET -2.64167 -7.25794 0.00000
					CHANNELS 3 Zrotation Yrotation Xrotation
					JOINT RightToe
					{
						OFFSET -0.19578 -0.53789 1.94104
						CHANNELS 3 Zrotation Yrotation Xrotation
						End Site
						{
							OFFSET -0.00000 -0.00000 1.01373
						}
					}
				}
			}
		}
	}
	JOINT lowerback
	{
		OFFSET 0 0 0
		CHANNELS 3 Zrotation Yrotation Xrotation
		JOINT Chest
		{
			OFFSET 0.01139 2.01356 -0.24266
			CHANNELS 3 Zrotation Yrotation Xrotation
			JOINT Chest2
			{
				OFFSET 0.00315 2.01402 -0.18659
				CHANNELS 3 Zrotation Yrotation Xrotation
				JOINT lowerneck
				{
					OFFSET 0 0 0
					CHANNELS 3 Zrotation Yrotation Xrotation
					JOINT Neck
					{
						OFFSET -0.15348 1.85288 0.32547
						CHANNELS 3 Zrotation Yrotation Xrotation
						JOINT Head
						{
							OFFSET 0.23013 1.84255 -0.51894
							CHANNELS 3 Zrotation Yrotation Xrotation
							End Site
							{
								OFFSET 0.08244 1.94374 -0.22179
							}
						}
					}
				}
				JOINT LeftCollar
				{
					OFFSET 0 0 0
					CHANNELS 3 Zrotation Yrotation Xrotation
					JOINT LeftShoulder
					{
						OFFSET 3.63468 1.26528 -0.10015
CHANNELS 3 Zrotation Xrotation Yrotation
						JOINT LeftElbow
						{
OFFSET 0 -5.535930 -0.000000
CHANNELS 3 Zrotation Xrotation Yrotation
							JOINT LeftWrist
							{
OFFSET 0 -3.133450 0.000000
CHANNELS 3 Zrotation Xrotation Yrotation
								JOINT lhand
								{
									OFFSET 0 0 0
CHANNELS 3 Zrotation Xrotation Yrotation
									JOINT LFingers
									{
OFFSET 0 -0.713370 0.000000
CHANNELS 3 Zrotation Xrotation Yrotation
										End Site
										{
OFFSET 0 -0.575140 0.000000
										}
									}
								}
								JOINT LThumb
								{
OFFSET 0 0.000000 0.000000
CHANNELS 3 Zrotation Xrotation Yrotation
									End Site
									{
OFFSET 0 -0.583920 0.583920
									}
								}
							}
						}
					}
				}
				JOINT RightCollar
				{
					OFFSET 0 0 0
					CHANNELS 3 Zrotation Yrotation Xrotation
					JOINT RightShoulder
					{
						OFFSET -3.31009 1.23247 0.08205
CHANNELS 3 Zrotation Xrotation Yrotation
						JOINT RightElbow
						{
OFFSET 0 -5.468500 0.000000
CHANNELS 3 Zrotation Xrotation Yrotation
							JOINT RightWrist
							{
OFFSET 0 -3.224110 -0.000000
CHANNELS 3 Zrotation Xrotation Yrotation
								JOINT rhand
								{
									OFFSET 0 0 0
CHANNELS 3 Zrotation Xrotation Yrotation
									JOINT RFingers
									{
OFFSET 0 -0.745280 0.000000
CHANNELS 3 Zrotation Xrotation Yrotation
										End Site
										{
OFFSET 0 -0.600860 0.000000
										}
									}
								}
								JOINT RThumb
								{
OFFSET 0 0.000000 0.000000
CHANNELS 3 Zrotation Xrotation Yrotation
									End Site
									{
OFFSET 0 -0.610040 0.610040
									}
								}
							}
						}
					}
				}
			}
		}
	}
}
MOTION
Frames: 6
Frame Time: .0083333
16.2287 16.4474 16.5162 0.4158 -2.7962 -1434.7200 0.0000 0.0000 0.0000 -9.4806 -21.7805 -30.5835 1.6677 8.1366 23.1298 0.7508 -3.0302 -15.6241 0.3330 -3.7088 -10.2587 0.0000 0.0000 0.0000 26.4357 6.2213 -0.3150 -1.7087 -8.2310 23.4181 0.2931 11.8033 -3.0916 -0.0961 1.9992 -5.5034 2.1137 -1.6862 -0.1531 1.2570 -2.2736 0.9020 0.0816 -1.1246 0.9785 -24.8428 -18.1219 0.6180 21.4844 -26.5164 7.7694 7.6292 -13.0273 8.6196 -0.0000 -0.0000 0.0000 2.4925 22.5711 -7.2137 8.7698 -14.7928 1.1406 3.3503 21.0745 -33.3237 0.0 0.0 0.0 -7.1250 0.0 0.0 -33.5068 60.0943 13.2157 -0.0000 -0.0000 0.0000 -14.2559 7.1916 53.3859 -54.2724 -54.5797 -29.6222 -21.286 -33.7449 -22.0605 0.0 0.0 0.0 7.1250 0.0 -0.0 4.7403 6.5417 4.1841
16.2456 16.4288 16.6693 0.1953 -3.3943 -1434.8100 0.0000 0.0000 0.0000 -9.2491 -21.5304 -30.5772 1.6067 7.9938 22.6952 0.7269 -3.3905 -15.3157 0.4046 -4.0837 -11.3123 0.0000 0.0000 0.0000 26.5578 6.1224 0.3991 -1.6942 -8.1979 23.3167 0.3057 12.2130 -3.3889 -0.0497 1.4387 -3.9568 2.2930 -1.6976 -0.1792 1.2311 -2.2928 0.9892 -0.0476 -1.1313 1.0743 -24.6665 -18.1492 0.3883 21.3651 -26.4904 7.7816 7.5537 -12.9987 8.6111 0.0000 -0.0000 0.0000 2.4469 22.7815 -7.2446 8.7578 -14.7736 1.1376 3.1099 21.1428 -33.2031 0.0 0.0 0.0 -7.1250 0.0 0.0 -33.6237 59.9388 13.1418 0.0000 -0.0000 0.0000 -14.1288 7.0533 53.5245 -54.7964 -54.7559 -30.0497 -21.1775 -33.7377 -22.2325 0.0 0.0 0.0 7.1250 0.0 -0.0 4.8239 6.3795 4.2736
16.2700 16.4117 16.8272 -0.0657 -3.8036 -1434.8100 0.0000 0.0000 0.0000 -9.1790 -21.0350 -30.6121 1.5613 7.8853 22.3662 0.6735 -3.7424 -14.6867 0.4569 -4.3362 -12.0244 0.0000 0.0000 0.0000 26.6382 5.8002 0.9225 -1.6945 -8.1985 23.3187 0.3412 12.6444 -3.2180 -0.1202 2.2350 -6.1557 2.5759 -1.8037 -0.1563 1.2648 -2.4348 0.9459 -0.1703 -1.2008 1.0046 -24.7322 -18.0371 0.5171 21.5465 -26.3428 7.4904 7.6719 -12.9398 8.4989 -0.0000 0.0000 0.0000 2.2875 23.1428 -7.361 8.7759 -14.8026 1.1422 2.8186 20.8687 -33.0369 0.0 0.0 0.0 -7.1250 0.0 0.0 -33.7446 59.7332 13.0274 -0.0000 0.0000 0.0000 -14.1142 7.0111 53.8575 -55.0668 -54.8453 -30.2706 -21.3426 -33.8344 -22.5002 0.0 0.0 0.0 7.1250 0.0 -0.0 4.7446 6.0736 4.2309
16.2929 16.3945 16.9948 0.0238 -4.3601 -1434.9900 0.0000 0.0000 0.0000 -9.5846 -20.4674 -30.3373 1.5380 7.8291 22.1961 0.6133 -4.0688 -13.9716 0.4287 -4.2020 -11.6458 0.0000 0.0000 0.0000 26.3195 5.5297 1.6142 -1.7075 -8.2282 23.4093 0.3874 13.0229 -2.7506 -0.3437 3.7673 -10.4229 2.5006 -1.8101 -0.2373 1.2045 -2.4465 0.9937 -0.1939 -1.2058 1.0993 -25.2410 -17.6636 2.1180 22.8852 -26.0643 5.6158 8.4065 -12.9279 7.8518 -0.0000 0.0000 0.0000 2.1692 23.3329 -7.5547 8.7939 -14.8313 1.1468 2.3824 20.4345 -33.0121 0.0 0.0 0.0 -7.1250 0.0 0.0 -34.1477 59.6125 13.1058 -0.0000 0.0000 0.0000 -14.0102 7.1662 53.8497 -55.3454 -54.9363 -30.4985 -21.2653 -33.6637 -22.6048 0.0 0.0 0.0 7.1250 0.0 -0.0 4.8026 5.977 4.2919
16.3093 16.3681 17.1661 0.1969 -4.9904 -1435.3200 0.0000 0.0000 0.0000 -10.1314 -19.8223 -29.8283 1.5311 7.8122 22.1451 0.5381 -4.2977 -13.0609 0.3777 -3.9473 -10.9285 0.0000 0.0000 0.0000 26.0009 5.4406 2.4825 -1.7475 -8.3191 23.6876 0.4113 13.1735 -2.4377 -0.4913 4.4941 -12.4709 2.2803 -1.7715 -0.2759 1.1127 -2.3955 1.0724 -0.1674 -1.1805 1.2075 -25.1097 -18.0353 0.6751 21.6857 -26.3543 7.2465 7.7736 -12.9643 8.4703 0.0000 0.0000 0.0000 2.1119 23.5068 -7.6794 8.8322 -14.8926 1.1566 1.3926 19.9972 -33.6591 0.0 0.0 0.0 -7.1250 0.0 0.0 -35.7610 59.9092 14.0826 0.0000 0.0000 0.0000 -13.9262 7.4825 53.8244 -55.5713 -55.0094 -30.6835 -21.082 -33.4006 -22.6663 0.0 0.0 0.0 7.1250 0.0 -0.0 4.9229 5.9427 4.4035
16.3276 16.3348 17.3241 0.0813 -5.4713 -1435.5400 0.0000 0.0000 0.0000 -10.3820 -19.1080 -29.4937 1.5483 7.8540 22.2716 0.4395 -4.5092 -11.7939 0.3576 -3.8419 -10.6324 0.0000 0.0000 0.0000 26.0038 5.3463 3.0375 -1.8186 -8.4775 24.1739 0.4236 13.1673 -2.1243 -0.4900 4.4885 -12.4552 2.3371 -1.8110 -0.0686 1.1025 -2.4403 1.0166 -0.2015 -1.2043 1.0304 -25.0377 -18.1216 0.2458 21.2033 -26.3982 7.8190 7.5512 -12.9599 8.6488 0.0000 -0.0000 0.0000 2.1306 23.7476 -7.8494 8.7716 -14.7957 1.1411 0.6501 19.8857 -33.9721 0.0 0.0 0.0 -7.1250 0.0 0.0 -36.8050 59.9872 14.633 0.0000 -0.0000 0.0000 -13.9015 7.7792 54.0034 -55.6294 -55.0281 -30.7311 -21.2304 -33.55 -23.2037 0.0 0.0 0.0 7.1250 0.0 -0.0 4.8804 5.3586 4.4197
